<svg id="Capa_1" enable-background="new 0 0 512 512" height="512" viewBox="0 0 512 512" width="512" xmlns="http://www.w3.org/2000/svg"><g><path d="m341 81h89.324c16.375 0 30.244-12.838 30.665-29.208.437-16.93-13.157-30.792-29.989-30.792h-89.324c-16.375 0-30.244 12.838-30.665 29.208-.437 16.93 13.157 30.792 29.989 30.792z" fill="#6b5c59"/><path d="m81 81h90c16.569 0 30-13.431 30-30s-13.431-30-30-30h-90c-16.569 0-30 13.431-30 30s13.431 30 30 30z" fill="#af8663"/><path d="m336 491h-10c-28.999 0-54.653-14.598-70-36.83-15.347 22.232-41.001 36.83-70 36.83h-10c-63.411 0-115-51.589-115-115 0-4.978 2.469-9.63 6.591-12.421 4.121-2.791 9.359-3.354 13.98-1.506l18.403 7.361c14.484 5.794 31.048 3.338 43.229-6.406 17.757-14.205 40.058-22.028 62.797-22.028 5.071 0 10.163.602 15.136 1.79 2.249.537 4.342 1.586 6.118 3.066l28.746 23.952 28.745-23.953c1.776-1.479 3.87-2.529 6.119-3.066 4.973-1.187 10.066-1.789 15.136-1.789 22.739 0 45.04 7.823 62.796 22.028 12.183 9.745 28.744 12.2 43.231 6.406h-.001l18.402-7.361c4.622-1.848 9.858-1.286 13.98 1.506 4.122 2.79 6.591 7.443 6.591 12.421.001 63.411-51.588 115-114.999 115z" fill="#af8663"/><g><path d="m444.409 363.579c-4.122-2.792-9.358-3.354-13.98-1.506l-18.402 7.361h.001c-14.487 5.793-31.049 3.339-43.231-6.406-17.757-14.205-40.058-22.028-62.797-22.028-5.07 0-10.163.602-15.136 1.79-2.249.537-4.343 1.586-6.119 3.066l-28.745 23.952v84.362c15.347 22.232 41.001 36.83 70 36.83h10c63.411 0 115-51.589 115-115 0-4.978-2.469-9.631-6.591-12.421z" fill="#6b5c59"/></g><g><g><path d="m256 401c-25.722 0-47.376-17.747-53.359-41.641-23.894-5.983-41.641-27.637-41.641-53.359 0-28.643 22.006-52.242 50-54.775v-95.225c0-24.813 20.187-45 45-45s45 20.187 45 45v95.225c27.994 2.533 50 26.132 50 54.775 0 25.722-17.747 47.376-41.641 53.359-5.983 23.894-27.637 41.641-53.359 41.641z" fill="#f2d1a5"/></g></g><g><path d="m301 251.225v-95.225c0-24.813-20.187-45-45-45v290c25.722 0 47.376-17.747 53.359-41.641 23.894-5.983 41.641-27.637 41.641-53.359 0-28.643-22.006-52.242-50-54.775z" fill="#f2bb88"/></g><g fill="#2e2654"><path d="m497 171h-21c-8.284 0-15-6.716-15-15s6.716-15 15-15h21c8.284 0 15 6.716 15 15s-6.716 15-15 15z"/><path d="m36 171h-21c-8.284 0-15-6.716-15-15s6.716-15 15-15h21c8.284 0 15 6.716 15 15s-6.716 15-15 15z"/></g><path d="m256 101c-30.327 0-55 24.673-55 55v15l30-15c0-13.785 11.215-25 25-25s25 11.215 25 25l30 15v-15c0-30.327-24.673-55-55-55z" fill="#453d81"/><g><g><path d="m256 101v30c13.785 0 25 11.215 25 25l30 15v-15c0-30.327-24.673-55-55-55z" fill="#2e2654"/></g></g><g><path d="m386 246c49.706 0 90-40.294 90-90v-20c0-22.091-17.909-40-40-40h-100c-22.091 0-40 17.909-40 40v20c0 49.706 40.294 90 90 90z" fill="#6ba7ff"/></g><g><path d="m126 246c-49.706 0-90-40.294-90-90v-20c0-22.091 17.909-40 40-40h100c22.091 0 40 17.909 40 40v20c0 49.706-40.294 90-90 90z" fill="#acceff"/></g><g><path d="m386 261c-57.897 0-105-47.103-105-105v-20c0-30.327 24.673-55 55-55h100c30.327 0 55 24.673 55 55v20c0 57.897-47.103 105-105 105zm-50-150c-13.785 0-25 11.215-25 25v20c0 41.355 33.645 75 75 75s75-33.645 75-75v-20c0-13.785-11.215-25-25-25z" fill="#453d81"/></g><g><path d="m126 261c-57.897 0-105-47.103-105-105v-20c0-30.327 24.673-55 55-55h100c30.327 0 55 24.673 55 55v20c0 57.897-47.103 105-105 105zm-50-150c-13.785 0-25 11.215-25 25v20c0 41.355 33.645 75 75 75s75-33.645 75-75v-20c0-13.785-11.215-25-25-25z" fill="#6b61b1"/></g></g></svg>